<svg width="16" height="16" viewBox="0 0 16 16" fill="none" xmlns="http://www.w3.org/2000/svg">
<path fill-rule="evenodd" clip-rule="evenodd" d="M8.00016 14.6666C4.32016 14.6666 1.3335 11.6733 1.3335 7.99992C1.3335 4.31992 4.32016 1.33325 8.00016 1.33325C11.6735 1.33325 14.6668 4.31992 14.6668 7.99992C14.6668 11.6733 11.6735 14.6666 8.00016 14.6666ZM10.6668 6.67992C10.4668 6.48659 10.1535 6.48659 9.96016 6.68659L8.00016 8.65325L6.04016 6.68659C5.84683 6.48659 5.52683 6.48659 5.3335 6.67992C5.1335 6.87992 5.1335 7.19325 5.3335 7.38659L7.64683 9.71325C7.74016 9.80659 7.86683 9.85992 8.00016 9.85992C8.1335 9.85992 8.26016 9.80659 8.3535 9.71325L10.6668 7.38659C10.7668 7.29325 10.8135 7.16659 10.8135 7.03992C10.8135 6.90659 10.7668 6.77992 10.6668 6.67992Z" fill="#141414"/>
</svg>
