<svg width="18" height="18" viewBox="0 0 18 18" fill="none" xmlns="http://www.w3.org/2000/svg">
<g clip-path="url(#clip0_7876_406972)">
<path d="M7.03613 16.8406L1.12074 10.9252C0.766137 10.5706 0.674471 10.4051 0.614165 10.2061C0.553859 10.0071 0.553859 9.80366 0.614165 9.60469C0.674471 9.40573 0.766137 9.24022 1.12074 8.88562L8.35851 1.64784C8.56391 1.44244 8.6424 1.37883 8.73931 1.31823C8.83621 1.25763 8.93475 1.21681 9.04612 1.19114C9.15749 1.16547 9.25797 1.15495 9.54846 1.15495L15.3678 1.15495C15.8684 1.15495 16.05 1.20695 16.2331 1.30465C16.4163 1.40236 16.5601 1.54577 16.6583 1.72862C16.7566 1.91147 16.8091 2.09288 16.8105 2.59352L16.8274 8.38754C16.8283 8.67877 16.8179 8.77959 16.7924 8.89136C16.7669 9.00313 16.7261 9.10206 16.6654 9.19932C16.6047 9.29658 16.5409 9.37535 16.335 9.58128L9.07569 16.8406C8.72109 17.1952 8.55558 17.2868 8.35661 17.3471C8.15765 17.4074 7.95417 17.4074 7.7552 17.3471C7.55624 17.2868 7.39073 17.1952 7.03613 16.8406ZM8.28019 16.0451L15.5395 8.78579C15.6432 8.68207 15.6814 8.64181 15.6988 8.62042C15.7015 8.59297 15.7028 8.5375 15.7024 8.39082L15.6855 2.5968C15.685 2.39339 15.6823 2.32125 15.6763 2.28827C15.6433 2.28244 15.5712 2.27995 15.3678 2.27995H9.54846C9.40198 2.27995 9.34658 2.28142 9.31915 2.2842C9.29779 2.30162 9.25758 2.33976 9.15401 2.44334L1.91623 9.68112C1.77225 9.8251 1.72294 9.87792 1.70373 9.9054C1.72294 9.93288 1.77225 9.9857 1.91623 10.1297L7.83162 16.0451C7.97561 16.1891 8.02843 16.2384 8.05591 16.2576C8.08338 16.2384 8.13621 16.1891 8.28019 16.0451ZM13.8739 4.11222C14.7526 4.9909 14.7526 6.41552 13.8739 7.2942C12.9952 8.17288 11.5706 8.17288 10.6919 7.2942C9.81327 6.41552 9.81327 4.9909 10.6919 4.11222C11.5706 3.23354 12.9952 3.23354 13.8739 4.11222ZM13.0784 4.90771C12.6391 4.46837 11.9268 4.46837 11.4874 4.90771C11.0481 5.34705 11.0481 6.05936 11.4874 6.4987C11.9268 6.93804 12.6391 6.93804 13.0784 6.4987C13.5178 6.05936 13.5178 5.34705 13.0784 4.90771ZM7.65816 12.6896L5.27168 10.3031C5.05201 10.0835 5.05201 9.72732 5.27168 9.50765C5.49135 9.28798 5.8475 9.28798 6.06717 9.50765L8.45366 11.8941C8.67333 12.1138 8.67333 12.47 8.45366 12.6896C8.23399 12.9093 7.87783 12.9093 7.65816 12.6896ZM9.24915 11.0986L6.86267 8.71216C6.643 8.49249 6.643 8.13633 6.86267 7.91666C7.08234 7.69699 7.43849 7.69699 7.65816 7.91666L10.0446 10.3031C10.2643 10.5228 10.2643 10.879 10.0446 11.0986C9.82498 11.3183 9.46882 11.3183 9.24915 11.0986Z" fill="#141414"/>
</g>
<defs>
<clipPath id="clip0_7876_406972">
<rect width="18" height="18" fill="#141414"/>
</clipPath>
</defs>
</svg>
