<svg width="16" height="16" viewBox="0 0 16 16" fill="none" xmlns="http://www.w3.org/2000/svg">
<path fill-rule="evenodd" clip-rule="evenodd" d="M7.58956 10.0586L7.34995 5.18143H8.64995L8.40014 10.0586H7.58956ZM7.98423 11.96C7.80995 11.96 7.66066 11.8979 7.53638 11.7736C7.41209 11.6493 7.34995 11.5014 7.34995 11.33C7.34995 11.1557 7.41209 11.0071 7.53638 10.8843C7.66066 10.7614 7.80995 10.7 7.98423 10.7C8.15281 10.7 8.29923 10.7607 8.42352 10.8821C8.54781 11.0036 8.60995 11.1529 8.60995 11.33C8.60995 11.5043 8.54709 11.6529 8.42138 11.7757C8.29566 11.8986 8.14995 11.96 7.98423 11.96ZM1.99995 14C1.24089 14 0.758575 13.1875 1.12205 12.5211L7.12205 1.52115C7.50107 0.826284 8.49883 0.826284 8.87784 1.52115L14.8778 12.5211C15.2413 13.1875 14.759 14 13.9999 14H1.99995ZM1.99995 13H13.9999L7.99995 2L1.99995 13Z" fill="#141414"/>
</svg>
