<svg width="56" height="56" viewBox="0 0 56 56" fill="none" xmlns="http://www.w3.org/2000/svg">
<path d="M14 0C12.075 0 10.5 1.575 10.5 3.5V52.5C10.5 54.425 12.075 56 14 56H49C50.925 56 52.5 54.425 52.5 52.5V14L38.5 0H14Z" fill="#E2E5E7"/>
<path d="M42 14H52.5L38.5 0V10.5C38.5 12.425 40.075 14 42 14Z" fill="#B0B7BD"/>
<path d="M52.5 24.5L42 14H52.5V24.5Z" fill="#CAD1D8"/>
<path d="M45.5 45.5C45.5 46.4625 44.7125 47.25 43.75 47.25H5.25C4.2875 47.25 3.5 46.4625 3.5 45.5V28C3.5 27.0375 4.2875 26.25 5.25 26.25H43.75C44.7125 26.25 45.5 27.0375 45.5 28V45.5Z" fill="#2C56B3"/>
<path d="M10.1252 42.0001C9.66318 42.0001 9.15918 41.7464 9.15918 41.1321V33.1854C9.15918 32.6814 9.66318 32.3174 10.1252 32.3174H13.3294C19.7239 32.3174 19.5822 42.0001 13.4537 42.0001H10.1252ZM11.0072 34.0236V40.2921H13.3294C17.1077 40.2921 17.2739 34.0236 13.3294 34.0236H11.0072Z" fill="white"/>
<path d="M24.9374 42.14C22.3491 42.252 19.6611 40.53 19.6611 37.1018C19.6611 33.6595 22.3474 31.9673 24.9374 31.9673C27.3856 32.0915 29.9459 33.7855 29.9459 37.1018C29.9459 40.4198 27.3856 42.14 24.9374 42.14ZM24.7834 33.7873C23.2154 33.7873 21.5091 34.8933 21.5091 37.1035C21.5091 39.3015 23.2171 40.4215 24.7834 40.4215C26.3934 40.4215 28.1136 39.3015 28.1136 37.1035C28.1136 34.8915 26.3934 33.7873 24.7834 33.7873Z" fill="white"/>
<path d="M31.5928 37.0877C31.5928 34.3874 33.2868 32.0652 36.505 32.0652C37.723 32.0652 38.689 32.4292 39.7093 33.3112C40.0873 33.6594 40.1293 34.2754 39.7513 34.6674C39.3733 35.0017 38.7993 34.9614 38.4633 34.6254C37.891 34.0234 37.303 33.8572 36.505 33.8572C34.3508 33.8572 33.3165 35.3832 33.3165 37.0894C33.3165 38.8254 34.3368 40.4197 36.505 40.4197C37.303 40.4197 38.045 40.0959 38.689 39.5237C39.1213 39.1877 39.7233 39.3539 39.9753 39.6917C40.1993 39.9997 40.3095 40.5177 39.8213 41.0059C38.8413 41.9177 37.667 42.0997 36.5033 42.0997C33.1188 42.0997 31.5928 39.7879 31.5928 37.0877Z" fill="white"/>
<path d="M43.75 47.25H10.5V49H43.75C44.7125 49 45.5 48.2125 45.5 47.25V45.5C45.5 46.4625 44.7125 47.25 43.75 47.25Z" fill="#CAD1D8"/>
</svg>
