<svg width="56" height="56" viewBox="0 0 56 56" fill="none" xmlns="http://www.w3.org/2000/svg">
<path d="M14 0C12.075 0 10.5 1.575 10.5 3.5V52.5C10.5 54.425 12.075 56 14 56H49C50.925 56 52.5 54.425 52.5 52.5V14L38.5 0H14Z" fill="#E2E5E7"/>
<path d="M42 14H52.5L38.5 0V10.5C38.5 12.425 40.075 14 42 14Z" fill="#B0B7BD"/>
<path d="M52.5 24.5L42 14H52.5V24.5Z" fill="#CAD1D8"/>
<path d="M45.5 45.5C45.5 46.4625 44.7125 47.25 43.75 47.25H5.25C4.2875 47.25 3.5 46.4625 3.5 45.5V28C3.5 27.0375 4.2875 26.25 5.25 26.25H43.75C44.7125 26.25 45.5 27.0375 45.5 28V45.5Z" fill="#F15642"/>
<path d="M11.1279 33.1572C11.1279 32.6952 11.4919 32.1912 12.0782 32.1912H15.3104C17.1304 32.1912 18.7684 33.4092 18.7684 35.7437C18.7684 37.9557 17.1304 39.1877 15.3104 39.1877H12.9742V41.0357C12.9742 41.6517 12.5822 41.9999 12.0782 41.9999C11.6162 41.9999 11.1279 41.6517 11.1279 41.0357V33.1572ZM12.9742 33.9534V37.4394H15.3104C16.2484 37.4394 16.9904 36.6117 16.9904 35.7437C16.9904 34.7654 16.2484 33.9534 15.3104 33.9534H12.9742Z" fill="white"/>
<path d="M21.509 41.9999C21.047 41.9999 20.543 41.7479 20.543 41.1336V33.1851C20.543 32.6829 21.047 32.3171 21.509 32.3171H24.7132C31.1077 32.3171 30.9677 41.9999 24.8392 41.9999H21.509ZM22.391 34.0251V40.2936H24.7132C28.4915 40.2936 28.6595 34.0251 24.7132 34.0251H22.391Z" fill="white"/>
<path d="M33.2358 34.1372V36.3614H36.804C37.308 36.3614 37.812 36.8654 37.812 37.3537C37.812 37.8157 37.308 38.1937 36.804 38.1937H33.2358V41.1319C33.2358 41.6219 32.8875 41.9982 32.3975 41.9982C31.7815 41.9982 31.4053 41.6219 31.4053 41.1319V33.1834C31.4053 32.6812 31.7833 32.3154 32.3975 32.3154H37.3098C37.9258 32.3154 38.2898 32.6812 38.2898 33.1834C38.2898 33.6314 37.9258 34.1354 37.3098 34.1354H33.2358V34.1372Z" fill="white"/>
<path d="M43.75 47.25H10.5V49H43.75C44.7125 49 45.5 48.2125 45.5 47.25V45.5C45.5 46.4625 44.7125 47.25 43.75 47.25Z" fill="#CAD1D8"/>
</svg>
