<svg width="20" height="18" viewBox="0 0 20 18" fill="none" xmlns="http://www.w3.org/2000/svg">
<path fill-rule="evenodd" clip-rule="evenodd" d="M11.8484 2.84833C11.8484 2.84834 11.8484 2.84834 11.8483 2.84835L10.5304 4.1664C10.3898 4.30706 10.199 4.38609 10.0001 4.38609C9.80115 4.3861 9.61038 4.30708 9.46972 4.16642L8.15165 2.84835C6.68718 1.38388 4.31282 1.38388 2.84835 2.84835C1.38388 4.31282 1.38388 6.68718 2.84835 8.15165L10 15.3034L17.1516 8.15165L17.682 8.68198L17.1517 8.15165C18.6161 6.68718 18.6161 4.31282 17.1516 2.84835C15.6872 1.38389 13.3128 1.38388 11.8484 2.84833ZM10.7877 1.78769C12.8379 -0.262563 16.1621 -0.262563 18.2123 1.78769C20.2626 3.83794 20.2626 7.16206 18.2123 9.21231L10.5304 16.8943C10.3897 17.035 10.199 17.114 10.0001 17.114C9.80114 17.114 9.61038 17.035 9.46972 16.8943L1.78769 9.21231C-0.262563 7.16206 -0.262563 3.83794 1.78769 1.78769C3.83794 -0.262563 7.16206 -0.262563 9.21231 1.78769L10 2.57541L10.7877 1.78771L10.7877 1.78769Z" fill="#141414"/>
</svg>
