<svg width="24" height="24" viewBox="0 0 24 24" fill="none" xmlns="http://www.w3.org/2000/svg">
<path fill-rule="evenodd" clip-rule="evenodd" d="M12 3.75C10.2051 3.75 8.75 5.20507 8.75 7C8.75 8.79493 10.2051 10.25 12 10.25C13.7949 10.25 15.25 8.79493 15.25 7C15.25 5.20507 13.7949 3.75 12 3.75ZM7.25 7C7.25 4.37665 9.37665 2.25 12 2.25C14.6234 2.25 16.75 4.37665 16.75 7C16.75 9.62335 14.6234 11.75 12 11.75C9.37665 11.75 7.25 9.62335 7.25 7ZM5.79454 20.25H18.2055C17.8349 17.1518 15.198 14.75 12 14.75C8.80204 14.75 6.16505 17.1518 5.79454 20.25ZM4.25 21C4.25 16.7198 7.71979 13.25 12 13.25C16.2802 13.25 19.75 16.7198 19.75 21C19.75 21.4142 19.4142 21.75 19 21.75H5C4.58579 21.75 4.25 21.4142 4.25 21Z" fill="#141414"/>
</svg>
