<svg width="24" height="24" viewBox="0 0 24 24" fill="none" xmlns="http://www.w3.org/2000/svg">
<path fill-rule="evenodd" clip-rule="evenodd" d="M12 21V15H13.5V21H21V17.2305V7.5H22.5V17.2305V21C22.5 21.828 21.8295 22.5 21 22.5H3C2.1705 22.5 1.5 21.828 1.5 21V18H3V21H12ZM19.2798 5.78068L14.7812 10.2808C14.9215 10.5742 15 10.9029 15 11.25C15 12.4935 13.992 13.5 12.75 13.5C12.0288 13.5 11.3864 13.1606 10.9746 12.6324L6.90322 13.9893L5.99964 14.2906C5.97797 15.5153 4.97845 16.5 3.75 16.5C2.508 16.5 1.5 15.4935 1.5 14.25C1.5 13.0065 2.508 12 3.75 12C4.47148 12 5.114 12.3396 5.52583 12.8681L10.5004 11.2093C10.522 9.98463 11.5216 9 12.75 9C13.0971 9 13.4258 9.07859 13.7195 9.21898L18.2189 4.71951C18.0786 4.42599 18 4.09723 18 3.75C18 2.5065 19.008 1.5 20.25 1.5C21.492 1.5 22.5 2.5065 22.5 3.75C22.5 4.9935 21.492 6 20.25 6C19.9027 6 19.5736 5.92128 19.2798 5.78068Z" fill="#141414"/>
</svg>
