<svg width="17" height="16" viewBox="0 0 17 16" fill="none" xmlns="http://www.w3.org/2000/svg">
<path d="M8.50013 16C12.9182 16 16.4998 12.4185 16.4998 8.00038C16.4998 3.5823 12.9182 0.000732422 8.50013 0.000732422C4.08205 0.000732422 0.500488 3.5823 0.500488 8.00038C0.500488 12.4185 4.08205 16 8.50013 16Z" fill="white"/>
<path d="M16.0424 5.33248C16.0416 5.32995 16.0408 5.32782 16.0399 5.32553C15.016 2.43865 12.3824 0.31466 9.21826 0.0327148C10.4426 0.703951 10.8002 2.83061 11.1135 5.33252C11.3275 7.04145 11.3289 8.92444 11.1176 10.6355C10.8069 13.1509 10.4478 15.2926 9.2183 15.9666C12.3883 15.6842 15.0256 13.5529 16.0455 10.6582C16.0482 10.6505 16.0504 10.643 16.0532 10.6355C16.3412 9.81003 16.4997 8.92356 16.4997 7.99993C16.4996 7.06418 16.3375 6.16683 16.0424 5.33248Z" fill="#E12A28"/>
<path d="M11.5255 5.33267C11.2124 2.83073 10.4429 0.704103 9.21841 0.032866C8.98156 0.0118899 8.74207 0 8.49981 0C5.0197 0 2.06014 2.22269 0.959651 5.32571C0.958773 5.32797 0.957996 5.33014 0.957118 5.33267C0.662067 6.16702 0.5 7.06437 0.5 8.00005C0.5 8.92381 0.65852 9.81015 0.946511 10.6356C0.94918 10.6431 0.951578 10.6506 0.954213 10.6583C2.05038 13.7694 5.01399 15.9998 8.49978 15.9998C8.74207 15.9998 8.98156 15.9879 9.21837 15.9667C10.4479 15.2927 11.2189 13.151 11.5296 10.6356C11.7409 8.92445 11.7395 7.0416 11.5255 5.33267Z" fill="#ED3432"/>
<path d="M8.42901 3.8999L9.37929 6.82484H12.4549L9.96665 8.63223L10.917 11.5575L8.42901 9.74964L5.94085 11.5575L6.89127 8.63223L4.40308 6.82484H7.47863L8.42901 3.8999Z" fill="#FDCE0C"/>
</svg>
