<svg width="25" height="24" viewBox="0 0 25 24" fill="none" xmlns="http://www.w3.org/2000/svg">
  <path d="M6.4999 5.3H6.9999V4.8V3.6C6.9999 3.2134 7.3133 2.9 7.6999 2.9C8.0865 2.9 8.3999 3.2134 8.3999 3.6V4.8V5.3H8.8999H16.0999H16.5999V4.8V3.6C16.5999 3.2134 16.9133 2.9 17.2999 2.9C17.6865 2.9 17.9999 3.2134 17.9999 3.6V4.8V5.3H18.4999H19.6999C20.7492 5.3 21.5999 6.15066 21.5999 7.2V19.2C21.5999 20.2493 20.7492 21.1 19.6999 21.1H5.2999C4.25056 21.1 3.3999 20.2493 3.3999 19.2V7.2C3.3999 6.15066 4.25056 5.3 5.2999 5.3H6.4999ZM7.6999 7.9C6.76102 7.9 5.9999 8.66112 5.9999 9.6C5.9999 10.5389 6.76102 11.3 7.6999 11.3H17.2999C18.2388 11.3 18.9999 10.5389 18.9999 9.6C18.9999 8.66112 18.2388 7.9 17.2999 7.9H7.6999Z" fill="#14B24C" stroke="#14B24C"/>
</svg>