<svg width="25" height="24" viewBox="0 0 25 24" fill="none" xmlns="http://www.w3.org/2000/svg">
<path fill-rule="evenodd" clip-rule="evenodd" d="M16.8687 7.50809C21.254 7.70097 24.75 11.3172 24.75 15.75C24.75 20.3063 21.0563 24 16.5 24H6.75C3.43629 24 0.75 21.3137 0.75 18C0.75 15.5449 2.22451 13.4343 4.33624 12.5053C4.05315 11.8729 3.86853 11.1979 3.79128 10.5H1.5C1.08579 10.5 0.75 10.1642 0.75 9.75C0.75 9.33579 1.08579 9 1.5 9H3.7912C3.93511 7.69811 4.44928 6.50781 5.22608 5.53674L3.21967 3.53033C2.92678 3.23744 2.92678 2.76256 3.21967 2.46967C3.51256 2.17678 3.98744 2.17678 4.28033 2.46967L6.28674 4.47608C7.25781 3.69928 8.44811 3.18511 9.75 3.0412V0.75C9.75 0.335786 10.0858 0 10.5 0C10.9142 0 11.25 0.335786 11.25 0.75V3.04145C12.543 3.18511 13.7367 3.69597 14.7133 4.476L16.7197 2.46967C17.0126 2.17678 17.4874 2.17678 17.7803 2.46967C18.0732 2.76256 18.0732 3.23744 17.7803 3.53033L15.7746 5.53608C16.241 6.11894 16.614 6.78315 16.8687 7.50809ZM6.75 22.5H16.5C20.2279 22.5 23.25 19.4779 23.25 15.75C23.25 12.0221 20.2279 9 16.5 9C13.7417 9 11.3067 10.6695 10.2719 13.1419C11.7736 14.2324 12.75 16.0022 12.75 18C12.75 18.4142 12.4142 18.75 12 18.75C11.5858 18.75 11.25 18.4142 11.25 18C11.25 15.5147 9.23528 13.5 6.75 13.5C4.26472 13.5 2.25 15.5147 2.25 18C2.25 20.4853 4.26472 22.5 6.75 22.5ZM15.2868 7.58909C14.4543 5.74475 12.6009 4.5 10.5 4.5C7.6005 4.5 5.25 6.8505 5.25 9.75C5.25 10.5702 5.43794 11.3614 5.79188 12.0761C6.10387 12.026 6.4239 12 6.75 12C7.52701 12 8.26952 12.1477 8.95099 12.4166C10.0887 9.83921 12.4813 8.00435 15.2868 7.58909Z" fill="#141414"/>
</svg>
