<svg width="40" height="41" viewBox="0 0 40 41" fill="none" xmlns="http://www.w3.org/2000/svg">
<circle cx="20" cy="20.25" r="20" fill="#14B24C"/>
<path d="M27.4598 10.2519C26.3361 10.2519 25.4201 11.1545 25.4201 12.2619C20.944 8.93975 14.5793 9.8238 11.2081 14.2347C7.83692 18.6457 8.73402 24.9178 13.2101 28.24C16.8268 30.92 21.8034 30.92 25.4106 28.24C25.4295 29.3566 26.355 30.2407 27.4787 30.2314C28.6024 30.2221 29.509 29.3008 29.4901 28.1934V12.2712C29.4995 11.1545 28.593 10.2519 27.4598 10.2519ZM19.3198 26.2299C15.9675 26.2299 13.2573 23.5591 13.2573 20.2556C13.2573 16.952 15.9769 14.2813 19.3198 14.2813C22.6627 14.2813 25.3823 16.952 25.3823 20.2556C25.3823 23.5498 22.6721 26.2206 19.3198 26.2299Z" fill="white"/>
</svg>
