<svg width="16" height="16" viewBox="0 0 16 16" fill="none" xmlns="http://www.w3.org/2000/svg">
<g id="Iconly/Light/Ticket">
<g id="Ticket">
<g id="Group">
<path id="Stroke 1" d="M9.23311 2.83353V4.44686" stroke="#141414" stroke-linecap="round" stroke-linejoin="round"/>
<path id="Stroke 3" d="M9.23311 11.84V13.1894" stroke="#141414" stroke-linecap="round" stroke-linejoin="round"/>
<path id="Stroke 6" d="M9.23311 9.54973V6.33573" stroke="#141414" stroke-linecap="round" stroke-linejoin="round"/>
</g>
<path id="Stroke 7" fill-rule="evenodd" clip-rule="evenodd" d="M12.4681 13.3333C13.6828 13.3333 14.6666 12.3617 14.6666 11.1621V9.43376C13.8629 9.43376 13.2155 8.79447 13.2155 8.00068C13.2155 7.2069 13.8629 6.56693 14.6666 6.56693L14.666 4.8379C14.666 3.6383 13.6814 2.66666 12.4674 2.66666H3.53259C2.31857 2.66666 1.33401 3.6383 1.33401 4.8379L1.33331 6.62323C2.1371 6.62323 2.78443 7.2069 2.78443 8.00068C2.78443 8.79447 2.1371 9.43376 1.33331 9.43376V11.1621C1.33331 12.3617 2.31718 13.3333 3.53189 13.3333H12.4681Z" stroke="#141414" stroke-linecap="round" stroke-linejoin="round"/>
</g>
</g>
</svg>
