<svg width="24" height="24" viewBox="0 0 24 24" fill="none" xmlns="http://www.w3.org/2000/svg">
<path fill-rule="evenodd" clip-rule="evenodd" d="M9.25 5C9.25 3.48122 10.4812 2.25 12 2.25C13.5188 2.25 14.75 3.48122 14.75 5V5.25H19C20.5188 5.25 21.75 6.48122 21.75 8V17C21.75 18.5188 20.5188 19.75 19 19.75H5C3.48122 19.75 2.25 18.5188 2.25 17V8C2.25 6.48122 3.48122 5.25 5 5.25H9.25V5ZM9.35352 6.75H5C4.30964 6.75 3.75 7.30964 3.75 8V17C3.75 17.6904 4.30964 18.25 5 18.25H19C19.6904 18.25 20.25 17.6904 20.25 17V8C20.25 7.30964 19.6904 6.75 19 6.75H14.6465C14.32 7.90425 13.2588 8.75 12 8.75C10.7412 8.75 9.67998 7.90425 9.35352 6.75ZM12 3.75C11.3096 3.75 10.75 4.30964 10.75 5V6C10.75 6.69036 11.3096 7.25 12 7.25C12.6904 7.25 13.25 6.69036 13.25 6V5C13.25 4.30964 12.6904 3.75 12 3.75ZM9 10.75C8.30964 10.75 7.75 11.3096 7.75 12C7.75 12.6904 8.30964 13.25 9 13.25C9.69036 13.25 10.25 12.6904 10.25 12C10.25 11.3096 9.69036 10.75 9 10.75ZM11.035 13.8497C11.4792 13.3613 11.75 12.7123 11.75 12C11.75 10.4812 10.5188 9.25 9 9.25C7.48122 9.25 6.25 10.4812 6.25 12C6.25 12.7122 6.52077 13.3613 6.965 13.8497C6.27525 14.2962 5.74168 14.9631 5.46352 15.7501C5.32549 16.1406 5.53018 16.5691 5.92072 16.7071C6.31126 16.8452 6.73975 16.6405 6.87778 16.2499C7.18701 15.375 8.02149 14.75 9 14.75C9.97848 14.75 10.8129 15.375 11.1221 16.2499C11.2601 16.6405 11.6886 16.8452 12.0792 16.7071C12.4697 16.5691 12.6744 16.1406 12.5364 15.7501C12.2582 14.9631 11.7247 14.2963 11.035 13.8497ZM14.25 11C14.25 10.5858 14.5858 10.25 15 10.25H18C18.4142 10.25 18.75 10.5858 18.75 11C18.75 11.4142 18.4142 11.75 18 11.75H15C14.5858 11.75 14.25 11.4142 14.25 11ZM14.25 15C14.25 14.5858 14.5858 14.25 15 14.25H17C17.4142 14.25 17.75 14.5858 17.75 15C17.75 15.4142 17.4142 15.75 17 15.75H15C14.5858 15.75 14.25 15.4142 14.25 15Z" fill="#141414"/>
</svg>
