<svg width="20" height="20" viewBox="0 0 20 20" fill="none" xmlns="http://www.w3.org/2000/svg">
<path d="M15.3412 15.075L12.9912 17.425" stroke="#141414" stroke-width="1.5" stroke-linecap="round" stroke-linejoin="round"/>
<path d="M15.3412 17.425L12.9912 15.075" stroke="#141414" stroke-width="1.5" stroke-linecap="round" stroke-linejoin="round"/>
<path d="M10.1331 9.05829C10.0498 9.04996 9.9498 9.04996 9.85814 9.05829C7.8748 8.99163 6.2998 7.36663 6.2998 5.36663C6.2998 3.32496 7.9498 1.66663 9.9998 1.66663C12.0415 1.66663 13.6998 3.32496 13.6998 5.36663C13.6915 7.36663 12.1165 8.99163 10.1331 9.05829Z" stroke="#141414" stroke-width="1.5" stroke-linecap="round" stroke-linejoin="round"/>
<path d="M10 18.1749C8.48333 18.1749 6.975 17.7916 5.825 17.0249C3.80833 15.6749 3.80833 13.4749 5.825 12.1333C8.11667 10.5999 11.875 10.5999 14.1667 12.1333" stroke="#141414" stroke-width="1.5" stroke-linecap="round" stroke-linejoin="round"/>
</svg>
