<svg width="24" height="24" viewBox="0 0 24 24" fill="none" xmlns="http://www.w3.org/2000/svg">
<path fill-rule="evenodd" clip-rule="evenodd" d="M6 3.25C6.41421 3.25 6.75 3.58579 6.75 4V13.3535C7.90425 13.68 8.75 14.7412 8.75 16C8.75 17.2588 7.90425 18.32 6.75 18.6465V20C6.75 20.4142 6.41421 20.75 6 20.75C5.58579 20.75 5.25 20.4142 5.25 20V18.6465C4.09575 18.32 3.25 17.2588 3.25 16C3.25 14.7412 4.09575 13.68 5.25 13.3535V4C5.25 3.58579 5.58579 3.25 6 3.25ZM12 3.25C12.4142 3.25 12.75 3.58579 12.75 4V5.35352C13.9043 5.67998 14.75 6.74122 14.75 8C14.75 9.25878 13.9043 10.32 12.75 10.6465V20C12.75 20.4142 12.4142 20.75 12 20.75C11.5858 20.75 11.25 20.4142 11.25 20V10.6465C10.0957 10.32 9.25 9.25878 9.25 8C9.25 6.74122 10.0957 5.67998 11.25 5.35352V4C11.25 3.58579 11.5858 3.25 12 3.25ZM18 3.25C18.4142 3.25 18.75 3.58579 18.75 4V13.3535C19.9043 13.68 20.75 14.7412 20.75 16C20.75 17.2588 19.9043 18.32 18.75 18.6465V20C18.75 20.4142 18.4142 20.75 18 20.75C17.5858 20.75 17.25 20.4142 17.25 20V18.6465C16.0957 18.32 15.25 17.2588 15.25 16C15.25 14.7412 16.0957 13.68 17.25 13.3535V4C17.25 3.58579 17.5858 3.25 18 3.25ZM12 6.75C11.3096 6.75 10.75 7.30964 10.75 8C10.75 8.69036 11.3096 9.25 12 9.25C12.6904 9.25 13.25 8.69036 13.25 8C13.25 7.30964 12.6904 6.75 12 6.75ZM6 14.75C5.30964 14.75 4.75 15.3096 4.75 16C4.75 16.6904 5.30964 17.25 6 17.25C6.69036 17.25 7.25 16.6904 7.25 16C7.25 15.3096 6.69036 14.75 6 14.75ZM18 14.75C17.3096 14.75 16.75 15.3096 16.75 16C16.75 16.6904 17.3096 17.25 18 17.25C18.6904 17.25 19.25 16.6904 19.25 16C19.25 15.3096 18.6904 14.75 18 14.75Z" fill="#141414"/>
</svg>
