<svg width="16" height="16" viewBox="0 0 16 16" fill="none" xmlns="http://www.w3.org/2000/svg">
<path fill-rule="evenodd" clip-rule="evenodd" d="M7.99984 1.33342C11.6798 1.33342 14.6665 4.32675 14.6665 8.00008C14.6665 11.6801 11.6798 14.6667 7.99984 14.6667C4.3265 14.6667 1.33317 11.6801 1.33317 8.00008C1.33317 4.32675 4.3265 1.33342 7.99984 1.33342ZM5.33317 9.32008C5.53317 9.51341 5.8465 9.51341 6.03984 9.31341L7.99984 7.34675L9.95984 9.31341C10.1532 9.51341 10.4732 9.51341 10.6665 9.32008C10.8665 9.12008 10.8665 8.80675 10.6665 8.61341L8.35317 6.28675C8.25984 6.19341 8.13317 6.14008 7.99984 6.14008C7.8665 6.14008 7.73984 6.19341 7.6465 6.28675L5.33317 8.61341C5.23317 8.70675 5.1865 8.83341 5.1865 8.96008C5.1865 9.09341 5.23317 9.22008 5.33317 9.32008Z" fill="#141414"/>
</svg>
