<svg width="24" height="24" viewBox="0 0 24 24" fill="none" xmlns="http://www.w3.org/2000/svg">
<path fill-rule="evenodd" clip-rule="evenodd" d="M7.25 7C7.25 4.37665 9.37665 2.25 12 2.25C14.6234 2.25 16.75 4.37665 16.75 7V10.25H18C19.5188 10.25 20.75 11.4812 20.75 13V19C20.75 20.5188 19.5188 21.75 18 21.75H6C4.48122 21.75 3.25 20.5188 3.25 19V13C3.25 11.4812 4.48122 10.25 6 10.25H7.25V7ZM8.75 10.25H15.25V7C15.25 5.20507 13.7949 3.75 12 3.75C10.2051 3.75 8.75 5.20507 8.75 7V10.25ZM7.25 11.75H6C5.30964 11.75 4.75 12.3096 4.75 13V19C4.75 19.6904 5.30964 20.25 6 20.25H18C18.6904 20.25 19.25 19.6904 19.25 19V13C19.25 12.3096 18.6904 11.75 18 11.75H16.75H16H8H7.25ZM12 14.25C12.4142 14.25 12.75 14.5858 12.75 15V17C12.75 17.4142 12.4142 17.75 12 17.75C11.5858 17.75 11.25 17.4142 11.25 17V15C11.25 14.5858 11.5858 14.25 12 14.25Z" fill="#141414"/>
</svg>
