<svg width="24" height="24" viewBox="0 0 24 24" fill="none" xmlns="http://www.w3.org/2000/svg">
<path fill-rule="evenodd" clip-rule="evenodd" d="M2.25 8.00006C2.25 6.48128 3.48122 5.25006 5 5.25006H13C14.5188 5.25006 15.75 6.48128 15.75 8.00006V8.78654L19.2174 7.05285C20.381 6.47106 21.75 7.31718 21.75 8.61809V15.382C21.75 16.6829 20.381 17.5291 19.2174 16.9473L15.75 15.2136V16.0001C15.75 17.5188 14.5188 18.7501 13 18.7501H5C3.48122 18.7501 2.25 17.5188 2.25 16.0001V8.00006ZM14.25 13.9838C14.2498 13.9943 14.2498 14.0047 14.25 14.0151V16.0001C14.25 16.6904 13.6904 17.2501 13 17.2501H5C4.30964 17.2501 3.75 16.6904 3.75 16.0001V8.00006C3.75 7.30971 4.30964 6.75006 5 6.75006H13C13.6904 6.75006 14.25 7.30971 14.25 8.00006V9.98499C14.2498 9.99541 14.2498 10.0058 14.25 10.0163V13.9838ZM15.75 13.5365L19.8882 15.6056C20.0544 15.6887 20.25 15.5679 20.25 15.382V8.61809C20.25 8.43225 20.0544 8.31138 19.8882 8.39449L15.75 10.4636V13.5365Z" fill="#141414"/>
</svg>
