<svg width="18" height="18" viewBox="0 0 18 18" fill="none" xmlns="http://www.w3.org/2000/svg">
<path d="M3 2V16H15V2H5.49991H3.5H3ZM2 1.5C2 1.22386 2.22386 1 2.5 1H15.5C15.7761 1 16 1.22386 16 1.5V16.5C16 16.7761 15.7761 17 15.5 17H2.5C2.22386 17 2 16.7761 2 16.5V1.5ZM6 2V16H7V2H6ZM8 4.5C8 4.77614 8.22386 5 8.5 5H13.5C13.7761 5 14 4.77614 14 4.5C14 4.22386 13.7761 4 13.5 4H8.5C8.22386 4 8 4.22386 8 4.5ZM8 7.5C8 7.77614 8.22386 8 8.5 8H13.5C13.7761 8 14 7.77614 14 7.5C14 7.22386 13.7761 7 13.5 7H8.5C8.22386 7 8 7.22386 8 7.5ZM8 10.5C8 10.7761 8.22386 11 8.5 11H13.5C13.7761 11 14 10.7761 14 10.5C14 10.2239 13.7761 10 13.5 10H8.5C8.22386 10 8 10.2239 8 10.5Z" fill="#141414"/>
<path d="M3.5 2V5.75858C3.5 5.84767 3.60771 5.89229 3.67071 5.82929L4.42929 5.07071C4.46834 5.03166 4.53166 5.03166 4.57071 5.07072L5.32919 5.82927C5.39219 5.89227 5.49991 5.84766 5.49991 5.75856V2H3.5Z" fill="#141414"/>
</svg>
