<svg width="20" height="20" viewBox="0 0 20 20" fill="none" xmlns="http://www.w3.org/2000/svg">
<path fill-rule="evenodd" clip-rule="evenodd" d="M7.29449 1.31991C8.85329 -0.00849265 11.146 -0.00849265 12.7048 1.31991C13.1325 1.68443 13.6643 1.90472 14.2246 1.94942C16.2661 2.11234 17.8873 3.73351 18.0502 5.77508C18.0949 6.33529 18.3152 6.86712 18.6797 7.29485C20.0081 8.85366 20.0081 11.1463 18.6797 12.7051C18.3152 13.1329 18.0949 13.6647 18.0502 14.2249C17.8873 16.2665 16.2661 17.8877 14.2246 18.0506C13.6643 18.0953 13.1325 18.3156 12.7048 18.6801C11.146 20.0085 8.85329 20.0085 7.29449 18.6801C6.86675 18.3156 6.33492 18.0953 5.77471 18.0506C3.73315 17.8877 2.11198 16.2665 1.94906 14.2249C1.90435 13.6647 1.68406 13.1329 1.31955 12.7051C-0.00885886 11.1463 -0.00885886 8.85366 1.31955 7.29485C1.68406 6.86712 1.90435 6.33529 1.94906 5.77508C2.11198 3.73351 3.73315 2.11234 5.77471 1.94942C6.33492 1.90472 6.86675 1.68443 7.29449 1.31991ZM11.7319 2.46158C10.7337 1.61095 9.26558 1.61095 8.26741 2.46158C7.59943 3.03084 6.76889 3.37486 5.89403 3.44467C4.58673 3.54899 3.54863 4.5871 3.4443 5.8944C3.37449 6.76926 3.03047 7.5998 2.46122 8.26778C1.61058 9.26595 1.61058 10.734 2.46122 11.7322C3.03047 12.4002 3.37449 13.2307 3.4443 14.1056C3.54863 15.4129 4.58673 16.451 5.89403 16.5553C6.76889 16.6251 7.59943 16.9692 8.26741 17.5384C9.26558 18.389 10.7337 18.389 11.7319 17.5384C12.3998 16.9692 13.2304 16.6251 14.1052 16.5553C15.4125 16.451 16.4506 15.4129 16.555 14.1056C16.6248 13.2307 16.9688 12.4002 17.538 11.7322C18.3887 10.734 18.3887 9.26595 17.538 8.26778C16.9688 7.5998 16.6248 6.76926 16.555 5.8944C16.4506 4.5871 15.4125 3.54899 14.1052 3.44467C13.2304 3.37486 12.3998 3.03084 11.7319 2.46158ZM13.53 7.46967C13.8229 7.76256 13.8229 8.23744 13.53 8.53033L9.52996 12.5303C9.23707 12.8232 8.7622 12.8232 8.4693 12.5303L6.4693 10.5303C6.17641 10.2374 6.17641 9.76256 6.4693 9.46967C6.7622 9.17678 7.23707 9.17678 7.52996 9.46967L8.99963 10.9393L12.4693 7.46967C12.7622 7.17678 13.2371 7.17678 13.53 7.46967Z" fill="#141414"/>
</svg>
