<svg width="29" height="22" viewBox="0 0 29 22" fill="none" xmlns="http://www.w3.org/2000/svg">
<path fill-rule="evenodd" clip-rule="evenodd" d="M20.6858 15.8216C20.7996 18.3983 18.72 20.5772 16.0413 20.6867C15.844 20.695 6.22531 20.6756 6.22531 20.6756C3.55961 20.8779 1.22658 18.9624 1.01632 16.3954C1.00048 16.2041 1.0048 5.88345 1.0048 5.88345C0.886705 3.30398 2.96339 1.11953 5.6435 1.00587C5.84368 0.996171 15.4494 1.01419 15.4494 1.01419C18.1281 0.814596 20.4683 2.744 20.6757 5.32348C20.6901 5.50921 20.6858 15.8216 20.6858 15.8216Z" stroke="#141414" stroke-width="1.5" stroke-linecap="round" stroke-linejoin="round"/>
<path d="M20.6902 8.00397L25.3217 4.2136C26.4693 3.27409 28.1908 4.09264 28.1894 5.57363L28.1725 15.9096C28.1711 17.3906 26.4482 18.2021 25.3034 17.2626L20.6902 13.4722" stroke="#141414" stroke-width="1.5" stroke-linecap="round" stroke-linejoin="round"/>
<path d="M6.62573 10.845H15.0644" stroke="#141414" stroke-width="1.5" stroke-linecap="round" stroke-linejoin="round"/>
<path d="M10.8452 6.62598V15.0717" stroke="#141414" stroke-width="1.5" stroke-linecap="round" stroke-linejoin="round"/>
</svg>
