<svg width="20" height="20" viewBox="0 0 20 20" fill="none" xmlns="http://www.w3.org/2000/svg">
<g clip-path="url(#clip0)">
<path d="M5 6.25V5.25C5 2.3505 7.23858 0 10 0C12.7614 0 15 2.3505 15 5.25V6.25H16.4286C17.02 6.25 17.5 6.81 17.5 7.5V18.75C17.5 19.44 17.02 20 16.4286 20H3.57143C2.98 20 2.5 19.44 2.5 18.75V7.5C2.5 6.81 2.98 6.25 3.57143 6.25H5ZM3.75 18.75H16.25V7.5H3.75V18.75ZM11.2471 14.1181L11.875 15.625H8.125L8.75288 14.1181C8.36768 13.7517 8.125 13.2184 8.125 12.625C8.125 11.521 8.965 10.625 10 10.625C11.035 10.625 11.875 11.521 11.875 12.625C11.875 13.2184 11.6323 13.7517 11.2471 14.1181ZM13.75 5.45C13.75 3.1304 12.0711 1.25 10 1.25C7.92893 1.25 6.25 3.1304 6.25 5.45V6.25H13.75V5.45Z" fill="#999999"/>
</g>
<defs>
<clipPath id="clip0">
<rect width="20" height="20" fill="white"/>
</clipPath>
</defs>
</svg>
