<svg width="14" height="18" viewBox="0 0 14 18" fill="none" xmlns="http://www.w3.org/2000/svg">
<path d="M6.19445 5.40985C6.25225 5.42225 6.30705 5.44591 6.3557 5.47949C6.40436 5.51306 6.44592 5.5559 6.47802 5.60555C6.51011 5.65519 6.53211 5.71068 6.54275 5.76883C6.5534 5.82698 6.55248 5.88666 6.54005 5.94445L6.27095 7.19995H8.50025L8.80895 5.75545C8.83401 5.63873 8.90442 5.53674 9.00468 5.47193C9.10493 5.40712 9.22683 5.38479 9.34355 5.40985C9.46027 5.43491 9.56226 5.50532 9.62707 5.60558C9.69188 5.70583 9.71421 5.82773 9.68915 5.94445L9.42095 7.19995H10.1509C10.2702 7.19995 10.3847 7.24736 10.469 7.33175C10.5534 7.41614 10.6009 7.5306 10.6009 7.64995C10.6009 7.7693 10.5534 7.88376 10.469 7.96815C10.3847 8.05254 10.2702 8.09995 10.1509 8.09995H9.22835L8.84315 9.89995H9.69995C9.8193 9.89995 9.93376 9.94736 10.0182 10.0318C10.1025 10.1161 10.15 10.2306 10.15 10.35C10.15 10.4693 10.1025 10.5838 10.0182 10.6681C9.93376 10.7525 9.8193 10.8 9.69995 10.8H8.64965L8.34005 12.2436C8.31499 12.3603 8.24458 12.4623 8.14433 12.5271C8.04407 12.5919 7.92217 12.6142 7.80545 12.5892C7.68873 12.5641 7.58675 12.4937 7.52193 12.3934C7.45712 12.2932 7.43479 12.1713 7.45985 12.0546L7.72895 10.8H5.49965L5.19005 12.2445C5.17764 12.3022 5.15397 12.357 5.12039 12.4057C5.0868 12.4543 5.04397 12.4959 4.99433 12.528C4.89407 12.5928 4.77217 12.6151 4.65545 12.5901C4.53873 12.565 4.43674 12.4946 4.37193 12.3943C4.30712 12.2941 4.28479 12.1722 4.30985 12.0555L4.57985 10.8H3.84995C3.7306 10.8 3.61614 10.7525 3.53175 10.6681C3.44736 10.5838 3.39995 10.4693 3.39995 10.35C3.39995 10.2306 3.44736 10.1161 3.53175 10.0318C3.61614 9.94736 3.7306 9.89995 3.84995 9.89995H4.77155L5.15855 8.09995H4.29995C4.1806 8.09995 4.06614 8.05254 3.98175 7.96815C3.89736 7.88376 3.84995 7.7693 3.84995 7.64995C3.84995 7.5306 3.89736 7.41614 3.98175 7.33175C4.06614 7.24736 4.1806 7.19995 4.29995 7.19995H5.35025L5.65985 5.75545C5.67225 5.69765 5.69591 5.64285 5.72949 5.5942C5.76306 5.54554 5.8059 5.50398 5.85555 5.47189C5.90519 5.43979 5.96068 5.41779 6.01883 5.40715C6.07698 5.39651 6.13666 5.39742 6.19445 5.40985ZM5.69225 9.89995H7.92155L8.30765 8.09995H6.07835L5.69225 9.89995ZM0.699951 4.94995C0.699951 4.35321 0.937004 3.78092 1.35896 3.35896C1.78092 2.937 2.35321 2.69995 2.94995 2.69995H11.05C11.6467 2.69995 12.219 2.937 12.6409 3.35896C13.0629 3.78092 13.3 4.35321 13.3 4.94995V13.05C13.3 13.6467 13.0629 14.219 12.6409 14.6409C12.219 15.0629 11.6467 15.3 11.05 15.3H2.94995C2.35321 15.3 1.78092 15.0629 1.35896 14.6409C0.937004 14.219 0.699951 13.6467 0.699951 13.05V4.94995ZM2.94995 3.59995C2.59191 3.59995 2.24853 3.74218 1.99536 3.99536C1.74218 4.24853 1.59995 4.59191 1.59995 4.94995V13.05C1.59995 13.408 1.74218 13.7514 1.99536 14.0045C2.24853 14.2577 2.59191 14.4 2.94995 14.4H11.05C11.408 14.4 11.7514 14.2577 12.0045 14.0045C12.2577 13.7514 12.4 13.408 12.4 13.05V4.94995C12.4 4.59191 12.2577 4.24853 12.0045 3.99536C11.7514 3.74218 11.408 3.59995 11.05 3.59995H2.94995Z" fill="#141414"/>
</svg>
