<svg width="56" height="56" viewBox="0 0 56 56" fill="none" xmlns="http://www.w3.org/2000/svg">
<path d="M14 0C12.075 0 10.5 1.575 10.5 3.5V52.5C10.5 54.425 12.075 56 14 56H49C50.925 56 52.5 54.425 52.5 52.5V14L38.5 0H14Z" fill="#E2E5E7"/>
<path d="M42 14H52.5L38.5 0V10.5C38.5 12.425 40.075 14 42 14Z" fill="#B0B7BD"/>
<path d="M52.5 24.5L42 14H52.5V24.5Z" fill="#CAD1D8"/>
<path d="M45.5 45.5C45.5 46.4625 44.7125 47.25 43.75 47.25H5.25C4.2875 47.25 3.5 46.4625 3.5 45.5V28C3.5 27.0375 4.2875 26.25 5.25 26.25H43.75C44.7125 26.25 45.5 27.0375 45.5 28V45.5Z" fill="#F15642"/>
<path d="M11.5342 33.1572C11.5342 32.6952 11.8982 32.1912 12.4844 32.1912H15.7167C17.5367 32.1912 19.1747 33.4092 19.1747 35.7437C19.1747 37.9557 17.5367 39.1877 15.7167 39.1877H13.3804V41.0357C13.3804 41.6517 12.9902 41.9999 12.4862 41.9999C12.0242 41.9999 11.5359 41.6517 11.5359 41.0357V33.1572H11.5342ZM13.3804 33.9534V37.4394H15.7167C16.6547 37.4394 17.3967 36.6117 17.3967 35.7437C17.3967 34.7654 16.6547 33.9534 15.7167 33.9534H13.3804Z" fill="white"/>
<path d="M20.958 33.1572C20.958 32.6952 21.322 32.1912 21.91 32.1912H25.1423C26.9623 32.1912 28.6003 33.4092 28.6003 35.7437C28.6003 37.9557 26.9623 39.1877 25.1423 39.1877H22.806V41.0357C22.806 41.6517 22.414 41.9999 21.91 41.9999C21.448 41.9999 20.958 41.6517 20.958 41.0357V33.1572ZM22.8043 33.9534V37.4394H25.1405C26.0785 37.4394 26.8205 36.6117 26.8205 35.7437C26.8205 34.7654 26.0785 33.9534 25.1405 33.9534H22.8043Z" fill="white"/>
<path d="M32.9957 34.0671H30.5492C29.3312 34.0671 29.3312 32.2769 30.5492 32.2769H37.166C38.412 32.2769 38.412 34.0671 37.166 34.0671H34.8437V41.1336C34.8437 42.3499 32.9957 42.3796 32.9957 41.1336V34.0671Z" fill="white"/>
<path d="M43.75 47.25H10.5V49H43.75C44.7125 49 45.5 48.2125 45.5 47.25V45.5C45.5 46.4625 44.7125 47.25 43.75 47.25Z" fill="#CAD1D8"/>
</svg>
