<svg width="24" height="24" viewBox="0 0 24 24" fill="none" xmlns="http://www.w3.org/2000/svg">
  <path d="M3.75 6a.75.75 0 0 1 0-1.5h1.5a.75.75 0 0 1 0 1.5h-1.5Zm6 0a.75.75 0 0 1 0-1.5h10.5a.75.75 0 0 1 0 1.5H9.75Zm0 4.5a.75.75 0 0 1 0-1.5h10.5a.75.75 0 0 1 0 1.5H9.75Zm0 4.5a.75.75 0 0 1 0-1.5h10.5a.75.75 0 0 1 0 1.5H9.75Zm-6-4.5a.75.75 0 0 1 0-1.5h1.5a.75.75 0 0 1 0 1.5h-1.5Zm0 4.5a.75.75 0 0 1 0-1.5h1.5a.75.75 0 0 1 0 1.5h-1.5Zm6 4.5a.75.75 0 0 1 0-1.5h10.5a.75.75 0 0 1 0 1.5H9.75Zm-6 0a.75.75 0 0 1 0-1.5h1.5a.75.75 0 0 1 0 1.5h-1.5Z" fill="#141414"/>
</svg>
