<svg width="17" height="16" viewBox="0 0 17 16" fill="none" xmlns="http://www.w3.org/2000/svg">
<path d="M14.2938 2.48483L13.4661 3.03658L12.0867 2.76071L11.2591 2.48483L10.1555 2.76071L9.32788 2.48483L9.87963 1.3813H10.9832L12.0646 0.840576C12.8987 1.25301 13.6532 1.80973 14.2938 2.48483Z" fill="#14B24C"/>
<path d="M7.94785 1.38136L7.67198 2.20902L6.84432 2.4849L6.01666 3.86431L4.63725 4.69196L2.70609 4.96784V5.7955L3.25784 6.34725V7.45078L2.43025 6.899L1.60259 6.34725L1.12256 4.9044C1.94881 2.9354 3.52825 1.37886 5.50907 0.581299L6.29257 1.10549L7.94785 1.38136Z" fill="#14B24C"/>
<path d="M8.5003 9.10648L8.22442 10.4859L7.12089 11.5894V12.4171L6.01736 13.2447V14.6241L5.18973 14.3482L4.63795 12.9688V10.21L3.25854 9.93414L2.70679 8.8306V8.00294L3.25854 7.45119L4.0862 6.62354L4.63795 7.72707H6.56911L7.39677 9.10648H8.5003Z" fill="#14B24C"/>
<path d="M15.4795 4.09304C16.9856 6.77986 16.814 10.0929 15.0381 12.6095L14.2932 11.8646V10.7611L13.7415 9.65755L13.1897 8.55402V7.45049L12.3621 6.89873L11.2586 7.17461L9.32739 6.34695L9.05151 4.41579L9.87917 3.58813H11.5345L12.0862 4.41579L13.7415 4.69167L15.3968 4.13992L15.4795 4.09304Z" fill="#14B24C"/>
<path d="M10.1547 2.76048L11.2583 2.4846L12.0859 2.76048L13.4653 3.03635L14.293 2.4846C14.7551 2.96823 15.1537 3.50867 15.4793 4.09298L15.3965 4.13989L13.7412 4.69164L12.086 4.41576L11.5342 3.58811H9.87892L9.05127 4.41576L9.32714 6.34692L11.2583 7.17458L12.3618 6.89871L13.1895 7.45046V8.55399L13.7412 9.65752L14.293 10.7611V11.8646L15.0379 12.6095C12.4901 16.2197 7.49801 17.0807 3.8881 14.5329C0.822218 12.3689 -0.32794 8.36499 1.12238 4.90408L1.60241 6.34692L2.43007 6.89867L3.25772 7.45043L2.70594 8.00221V8.82987L3.25769 9.9334L4.6371 10.2093V12.9681L5.18885 14.3475L6.01651 14.6234V13.244L7.12004 12.4163V11.5887L8.22358 10.4851L8.49945 9.10571H7.39592L6.56826 7.7263H4.6371L4.08535 6.62277L3.25769 7.45043V6.34689L2.70594 5.79517V4.96751L4.6371 4.69164L6.01651 3.86398L6.84417 2.48457L7.67183 2.2087L7.9477 1.38104L6.29242 1.10516L5.50892 0.580974C7.63045 -0.273434 10.0163 -0.17909 12.0639 0.840318L10.9824 1.38104H9.87886L9.32711 2.48457L10.1547 2.76048Z" fill="#86DAF1"/>
</svg>
