<svg width="16" height="16" viewBox="0 0 16 16" fill="none" xmlns="http://www.w3.org/2000/svg">
<path fill-rule="evenodd" clip-rule="evenodd" d="M14.6051 4.71765L14.1382 3.90758C13.7433 3.22214 12.8681 2.98568 12.1817 3.37898V3.37898C11.855 3.57145 11.4651 3.62605 11.0981 3.53075C10.7311 3.43545 10.417 3.19808 10.2252 2.87097C10.1018 2.66305 10.0355 2.42623 10.033 2.18447V2.18447C10.0441 1.79686 9.89787 1.42124 9.62758 1.14319C9.35729 0.865142 8.98596 0.708336 8.59819 0.708496H7.65769C7.27779 0.708492 6.91355 0.859875 6.64556 1.12915C6.37758 1.39842 6.22794 1.76338 6.22977 2.14328V2.14328C6.21851 2.92763 5.57942 3.55755 4.79499 3.55747C4.55322 3.55496 4.3164 3.48865 4.10849 3.36525V3.36525C3.42211 2.97195 2.5469 3.20841 2.15197 3.89385L1.65082 4.71765C1.25637 5.40223 1.48961 6.27689 2.17256 6.67417V6.67417C2.61649 6.93047 2.88996 7.40413 2.88996 7.91673C2.88996 8.42934 2.61649 8.903 2.17256 9.1593V9.1593C1.49048 9.55389 1.25698 10.4264 1.65082 11.109V11.109L2.12451 11.9259C2.30955 12.2598 2.62001 12.5062 2.98721 12.6105C3.3544 12.7149 3.74804 12.6686 4.08103 12.482V12.482C4.40837 12.2909 4.79845 12.2386 5.16457 12.3366C5.53068 12.4346 5.84249 12.6747 6.03068 13.0037C6.15408 13.2116 6.22039 13.4484 6.2229 13.6902V13.6902C6.2229 14.4826 6.86528 15.125 7.65769 15.125H8.59819C9.38792 15.125 10.0292 14.4868 10.033 13.6971V13.6971C10.0311 13.316 10.1817 12.95 10.4512 12.6805C10.7207 12.411 11.0867 12.2604 11.4678 12.2623C11.7089 12.2687 11.9448 12.3348 12.1543 12.4545V12.4545C12.8388 12.8489 13.7135 12.6157 14.1108 11.9328V11.9328L14.6051 11.109C14.7964 10.7806 14.8489 10.3894 14.751 10.0222C14.653 9.65499 14.4127 9.34196 14.0833 9.15243V9.15243C13.7539 8.96291 13.5136 8.64987 13.4157 8.28265C13.3177 7.91542 13.3703 7.5243 13.5616 7.19591C13.686 6.97869 13.8661 6.79859 14.0833 6.67417V6.67417C14.7622 6.27711 14.9949 5.40756 14.6051 4.72451V4.72451V4.71765Z" stroke="#141414" stroke-linecap="round" stroke-linejoin="round"/>
<circle cx="8.13141" cy="7.91657" r="1.97712" stroke="#141414" stroke-linecap="round" stroke-linejoin="round"/>
</svg>