<svg width="17" height="16" viewBox="0 0 17 16" fill="none" xmlns="http://www.w3.org/2000/svg">
<path d="M11.5 3H16.5V4H0.5V3H5.5V1C5.5 0.448 5.948 0 6.5 0H10.5C11.052 0 11.5 0.448 11.5 1V3ZM4.444 11H7.5V12H4.6L4.992 14.519C5.034 14.788 5.246 14.977 5.485 14.977H11.515C11.754 14.977 11.966 14.788 12.008 14.519L13.506 4.943H14.5L12.996 14.673C12.88 15.42 12.256 15.977 11.515 15.977H5.485C4.744 15.977 4.12 15.42 4.004 14.673L2.493 4.943H9.5V5.95H3.657L3.976 8H8.5V9H4.132L4.444 11ZM6.5 3H10.5V1H6.5V3Z" fill="#141414"/>
</svg>
