<svg width="26" height="26" viewBox="0 0 26 26" fill="none" xmlns="http://www.w3.org/2000/svg">
<path fill-rule="evenodd" clip-rule="evenodd" d="M17.7798 16.7074H18.9648L25.3248 23.0974C25.9398 23.7124 25.9398 24.7174 25.3248 25.3324C24.7098 25.9474 23.7048 25.9474 23.0898 25.3324L16.7148 18.9574V17.7724L16.3098 17.3524C14.2098 19.1524 11.3448 20.0824 8.29981 19.5724C4.12981 18.8674 0.799806 15.3874 0.289806 11.1874C-0.490194 4.84236 4.84981 -0.497641 11.1948 0.282359C15.3948 0.792359 18.8748 4.12236 19.5798 8.29236C20.0898 11.3374 19.1598 14.2024 17.3598 16.3024L17.7798 16.7074ZM3.2148 9.95736C3.2148 13.6924 6.2298 16.7074 9.9648 16.7074C13.6998 16.7074 16.7148 13.6924 16.7148 9.95736C16.7148 6.22236 13.6998 3.20736 9.9648 3.20736C6.2298 3.20736 3.2148 6.22236 3.2148 9.95736Z" fill="#141414" fill-opacity="0.54"/>
</svg>
