<svg width="17" height="16" viewBox="0 0 17 16" fill="none" xmlns="http://www.w3.org/2000/svg">
<path fill-rule="evenodd" clip-rule="evenodd" d="M3.66669 11.3334C3.66669 12.1618 4.33826 12.8334 5.16669 12.8334H11.8334C12.6618 12.8334 13.3334 12.1618 13.3334 11.3334V10.6667C13.3334 10.3906 13.5572 10.1667 13.8334 10.1667C14.1095 10.1667 14.3334 10.3906 14.3334 10.6667V11.3334C14.3334 12.7141 13.2141 13.8334 11.8334 13.8334H5.16669C3.78598 13.8334 2.66669 12.7141 2.66669 11.3334L2.66669 10.6667C2.66669 10.3906 2.89054 10.1667 3.16669 10.1667C3.44283 10.1667 3.66669 10.3906 3.66669 10.6667V11.3334ZM5.4798 5.68697C5.28454 5.49171 5.28454 5.17512 5.4798 4.97986L8.14647 2.31319C8.24023 2.21943 8.36741 2.16675 8.50002 2.16675C8.63263 2.16675 8.75981 2.21943 8.85357 2.31319L11.5202 4.97986C11.7155 5.17512 11.7155 5.49171 11.5202 5.68697C11.325 5.88223 11.0084 5.88223 10.8131 5.68697L9.00002 3.87385L9.00002 10.6667C9.00002 10.9429 8.77616 11.1667 8.50002 11.1667C8.22388 11.1667 8.00002 10.9429 8.00002 10.6667L8.00002 3.87386L6.18691 5.68697C5.99165 5.88223 5.67506 5.88223 5.4798 5.68697Z" fill="#141414"/>
</svg>
