<svg width="16" height="16" viewBox="0 0 16 16" fill="none" xmlns="http://www.w3.org/2000/svg">
<path d="M2.98 14H13.02C14.0467 14 14.6867 12.8867 14.1733 12L9.15333 3.32668C8.64 2.44002 7.36 2.44002 6.84667 3.32668L1.82667 12C1.31333 12.8867 1.95333 14 2.98 14ZM8 9.33335C7.63333 9.33335 7.33333 9.03335 7.33333 8.66668V7.33335C7.33333 6.96668 7.63333 6.66668 8 6.66668C8.36667 6.66668 8.66667 6.96668 8.66667 7.33335V8.66668C8.66667 9.03335 8.36667 9.33335 8 9.33335ZM8.66667 12H7.33333V10.6667H8.66667V12Z" fill="#141414"/>
</svg>
